<svg xmlns="http://www.w3.org/2000/svg" version="1.1" xmlns:xlink="http://www.w3.org/1999/xlink" xmlns:svgjs="http://svgjs.dev/svgjs" width="100%" height="100%" viewBox="0 0 1000 600"><rect width="1000" height="600" x="0" y="0" fill="#234e70"/><g><circle r="166.66666666666666" cx="344.04426066080725" cy="366.2664481086033" fill="#fbf8be" transform="matrix(0.7047114880711198,0,0,0.7047114880711197,0,41.88783441295631)"/><path d="M416.6571308345111 441.26642335000105L363.0905384898595 441.26642335000105L363.0905384898595 436.1535564447909Q371.183089419298 434.49441420402735 375.7541955928303 432.4628114602353Q380.35916181209234 430.4312087164432 380.35916181209234 428.8736466128693L380.35916181209234 428.8736466128693L380.35916181209234 303.76077764100603Q380.35916181209234 302.33865572035154 375.99121591293937 300.2054728393698Q371.6571300595162 298.0722899583881 363.0905384898595 296.37928767189476L363.0905384898595 296.37928767189476L363.0905384898595 291.26642076668463L416.6571308345111 291.26642076668463L416.6571308345111 296.37928767189476Q408.6661600422622 298.0722899583881 404.02733377727026 300.07003265645034Q399.3885075122783 302.10163540024246 399.3885075122783 303.76077764100603L399.3885075122783 303.76077764100603L399.3885075122783 428.8736466128693Q399.3885075122783 430.32962857925367 403.72259336570147 432.3950913687756Q408.09053926485444 434.49441420402735 416.6571308345111 436.1535564447909L416.6571308345111 436.1535564447909L416.6571308345111 441.26642335000105ZM382.72936501318316 368.0610044820258L304.41107923999783 368.0610044820258L304.41107923999783 357.32736998565764L382.72936501318316 357.32736998565764L382.72936501318316 368.0610044820258ZM324.99798704375775 441.26642335000105L271.43139469910614 441.26642335000105L271.43139469910614 436.1535564447909Q279.52394562854465 434.49441420402735 284.09505180207685 432.4628114602353Q288.7000180213389 430.4312087164432 288.7000180213389 428.8736466128693L288.7000180213389 428.8736466128693L288.7000180213389 303.76077764100603Q288.7000180213389 302.33865572035154 284.33207212218593 300.2054728393698Q279.9979862687628 298.0722899583881 271.43139469910614 296.37928767189476L271.43139469910614 296.37928767189476L271.43139469910614 291.26642076668463L324.99798704375775 291.26642076668463L324.99798704375775 296.37928767189476Q317.0070162515088 298.0722899583881 312.3681899865169 300.07003265645034Q307.7293637215249 302.10163540024246 307.7293637215249 303.76077764100603L307.7293637215249 303.76077764100603L307.7293637215249 428.8736466128693Q307.7293637215249 430.32962857925367 312.0295895292182 432.3950913687756Q316.2959552911816 434.49441420402735 324.99798704375775 436.1535564447909L324.99798704375775 436.1535564447909L324.99798704375775 441.26642335000105Z " fill="#234e70" transform="matrix(0.7047114880711198,0,0,0.7047114880711197,0,41.88783441295631)"/><path d="M726.0947636004609 438.0336669061416L677.3878644554402 438.0336669061416L677.3878644554402 433.38465188028937Q684.7462392314578 431.87603111031086 688.9026433936435 430.0287403715617Q693.0898357348084 428.18144963281253 693.0898357348084 426.7651933997715L693.0898357348084 426.7651933997715L693.0898357348084 313.00287207179946Q693.0898357348084 311.709768554675 689.1181606464977 309.77011327898833Q685.1772737371659 307.8304580033017 677.3878644554402 306.29104905434406L677.3878644554402 306.29104905434406L677.3878644554402 301.6420340284918L726.0947636004609 301.6420340284918L726.0947636004609 306.29104905434406Q718.8287533613808 307.8304580033017 714.6107728412368 309.64696056307173Q710.3927923210928 311.49425130182095 710.3927923210928 313.00287207179946L710.3927923210928 313.00287207179946L710.3927923210928 426.7651933997715Q710.3927923210928 428.0890850958751 714.3336792304243 429.9671640136034Q718.3053543187351 431.87603111031086 726.0947636004609 433.38465188028937L726.0947636004609 433.38465188028937L726.0947636004609 438.0336669061416ZM695.2450082633492 371.46962395321185L624.0319502845673 371.46962395321185L624.0319502845673 361.70977121682023L695.2450082633492 361.70977121682023L695.2450082633492 371.46962395321185ZM642.7511631038925 438.0336669061416L594.0442639588719 438.0336669061416L594.0442639588719 433.38465188028937Q601.4026387348895 431.87603111031086 605.5590428970752 430.0287403715617Q609.74623523824 428.18144963281253 609.74623523824 426.7651933997715L609.74623523824 426.7651933997715L609.74623523824 313.00287207179946Q609.74623523824 311.709768554675 605.7745601499292 309.77011327898833Q601.8336732405976 307.8304580033017 594.0442639588719 306.29104905434406L594.0442639588719 306.29104905434406L594.0442639588719 301.6420340284918L642.7511631038925 301.6420340284918L642.7511631038925 306.29104905434406Q635.4851528648123 307.8304580033017 631.2671723446683 309.64696056307173Q627.0491918245243 311.49425130182095 627.0491918245243 313.00287207179946L627.0491918245243 313.00287207179946L627.0491918245243 426.7651933997715Q627.0491918245243 428.0890850958751 630.9592905548768 429.9671640136034Q634.83860110625 431.87603111031086 642.7511631038925 433.38465188028937L642.7511631038925 433.38465188028937L642.7511631038925 438.0336669061416ZM832.1600401836446 424.3021390814392L833.7918136695397 429.16667136014536Q824.5861481547728 435.4474598718927 818.5824532538378 438.37233687491226Q812.578758352903 441.2664256989527 809.5307286339668 441.2664256989527L809.5307286339668 441.2664256989527Q805.7437826195309 441.2664256989527 803.3730928381361 435.60140076678846Q801.0024030567412 429.9055876556451 801.0024030567412 420.2688876351701L801.0024030567412 420.2688876351701L801.0024030567412 362.0484411855909Q801.0024030567412 354.69006640957326 797.2154570423055 349.64080505699206Q793.4285110278694 344.62233188339 782.8065892800615 344.9610018521608L782.8065892800615 344.9610018521608Q775.879249009752 345.05336638909824 770.1834358986088 349.1174060143465Q764.5184109664443 353.18144563959476 765.1649627250066 359.67775140419604L765.1649627250066 359.67775140419604Q765.3804799778608 360.9708549213205 761.4703812475083 362.6026284072156Q757.5910706961348 364.2036137141317 753.0959965651786 365.2504117994228Q748.6009224342221 366.2664217057349 746.7536316954728 365.8353872000268L746.7536316954728 365.8353872000268L745.2450109254943 361.6174066798828Q748.6009224342221 354.3513964408025 756.2979671790105 348.13218428701356Q763.9642237448196 341.9129721332245 773.6625001232529 338.0336615818513Q783.3607765016862 334.1235628514988 792.4432893005365 334.1235628514988L792.4432893005365 334.1235628514988Q804.358314565469 334.1235628514988 810.7930439721121 340.3427750052877Q817.2277733787552 346.56198715907675 817.2277733787552 357.7073079495303L817.2277733787552 357.7073079495303L817.2277733787552 418.76026686519157Q817.2277733787552 427.1962279054796 821.5689066148158 427.1962279054796L821.5689066148158 427.1962279054796Q823.0775273847943 427.1962279054796 825.448217166189 426.6112525048757Q827.849695126563 426.02627710427174 832.1600401836446 424.3021390814392L832.1600401836446 424.3021390814392ZM802.0799893210116 377.1038607063969L802.0799893210116 385.2011517779143Q789.6415650134337 387.17159523258016 782.7142247431242 389.1112505082668Q775.7868844728147 391.0509057839534 772.2154557112327 393.17529013351503Q768.6132387706717 395.2688863040975 766.242548989277 397.76272880140885L766.242548989277 397.76272880140885Q763.5331892391115 400.6876058044284 761.7474748583205 404.412975460906Q759.9617604775298 408.16913329636276 759.9617604775298 413.2491828279231L759.9617604775298 413.2491828279231Q759.9617604775298 418.9757841180456 762.0861448270913 422.0238138369818Q764.1797409976738 425.0410553769388 767.0122534637559 426.1186416412092Q769.8139777508587 427.1962279054796 771.661268489608 427.1962279054796L771.661268489608 427.1962279054796Q778.3730915070636 427.1962279054796 785.9469835359351 423.62479914389775Q793.5208755648069 420.053370382316 802.0799893210116 412.4794783534442L802.0799893210116 412.4794783534442L802.942058332428 420.48440488802413Q792.7511710903281 431.44499660460275 782.7142247431242 436.37110524126734Q772.6464902169408 441.2664256989527 765.2881154409232 441.2664256989527L765.2881154409232 441.2664256989527Q760.0849131934464 441.2664256989527 754.7585582300527 438.95731227551624Q749.4629914456383 436.61741067310055 745.8299863260983 431.44499660460275Q742.2277693855373 426.2417943571258 742.2277693855373 417.89819785377523L742.2277693855373 417.89819785377523Q742.2277693855373 409.55460135042466 745.0910700305986 404.1050936711145Q747.9543706756598 398.6247978128252 751.9568339429499 394.62233454553524L751.9568339429499 394.62233454553524Q755.5282627045316 391.0509057839534 760.608312236092 388.0336642439964Q765.7191499466313 384.9856345250602 775.3866381460856 382.2762747748947Q785.0849145245189 379.59770320370836 802.0799893210116 377.1038607063969L802.0799893210116 377.1038607063969ZM918.6440349360865 338.1260261187886L918.6440349360865 338.1260261187886Q920.0602911691277 338.8957305932675 919.5061039475028 343.91420376686955Q918.9827049048573 348.96346511945063 917.4125077769205 354.9671600203856Q915.8423106489837 360.9708549213205 913.9950199102344 364.85016547269385L913.9950199102344 364.85016547269385L909.3460048843823 364.85016547269385Q908.0529013672577 356.1063226426143 904.7277780375092 352.6888347759282Q901.4334428867397 349.27134690924225 897.3386150825123 349.27134690924225L897.3386150825123 349.27134690924225Q892.5664473407436 349.27134690924225 885.208072564726 357.6149434125928Q877.8496977887083 365.9585399159434 872.6464955412313 384.33908276649794L872.6464955412313 384.33908276649794L872.6464955412313 426.7651933997715Q872.6464955412313 428.3969668856666 876.7105351664796 430.12110490849915Q880.7745747917278 431.87603111031086 890.9346738548485 433.38465188028937L890.9346738548485 433.38465188028937L890.9346738548485 438.0336669061416L841.2425529824949 438.0336669061416L841.2425529824949 433.38465188028937Q848.4161986846376 431.75287839439426 852.4186619519274 430.12110490849915Q856.4211252192175 428.5201196015832 856.4211252192175 426.7651933997715L856.4211252192175 426.7651933997715L856.4211252192175 363.77257920842345Q856.4211252192175 356.6297216852599 855.6514207447386 353.8279973981569Q854.8817162702597 350.9954849320748 853.927282721906 350.041051383721L853.927282721906 350.041051383721Q852.511026488865 348.5324306137425 849.9248194546161 347.9782433921178Q847.307824241388 347.424056170493 841.2425529824949 347.11617438070147L841.2425529824949 347.11617438070147L841.2425529824949 342.77504114464085Q848.293045968721 341.0509031218083 855.0972335231139 339.11124784612156Q861.9322092564859 337.1408043914558 867.2277760409003 334.1235628514988L867.2277760409003 334.1235628514988L871.0147220553362 337.91050886593456L872.4309782883773 362.479475691299Q878.2807322944165 350.47208588942925 886.0701415761422 342.28243028097444Q893.8595508578682 334.1235628514988 903.1575809095724 334.1235628514988L903.1575809095724 334.1235628514988Q906.6366451342168 334.1235628514988 910.7006847594649 334.985631862915Q914.7647243847133 335.84770087433134 918.6440349360865 338.1260261187886ZM931.9753164340599 438.0336669061416L928.4962522094157 438.0336669061416L928.4962522094157 433.38465188028937Q935.8546269854334 431.87603111031086 940.0110311476191 430.0287403715617Q944.198223488784 428.18144963281253 944.198223488784 426.7651933997715L944.198223488784 426.7651933997715L944.198223488784 309.3390787732802Q939.9802429686398 309.8624778159258 936.0085678803292 310.4782413955089Q932.0676809709975 311.0632167961128 928.4962522094157 311.61740401773756L928.4962522094157 311.61740401773756L927.5110304820827 304.9055810002821Q933.9149717097467 303.0582902615329 942.6896027188053 301.61124584951267Q951.4334455488851 300.1334132585133 961.0393573903808 299.27134424709703Q970.6144810528975 298.40927523568075 979.1428066301231 298.40927523568075L979.1428066301231 298.40927523568075Q999.2782756824894 298.40927523568075 1013.9642370555456 306.29104905434406Q1028.619410249623 314.20361105198646 1036.6243367842026 329.0435133199384Q1044.6292633187827 343.85262740891125 1044.6292633187827 364.85016547269385L1044.6292633187827 364.85016547269385Q1044.6292633187827 385.1087872409768 1038.7795093127434 399.1174086764916Q1032.9605434856835 413.1260301120064 1023.6933016129582 421.74672022616943Q1014.426059740233 430.3366221613532 1003.8349261714042 434.1851445337474Q993.2130044235963 438.0336669061416 983.6070925821003 438.0336669061416L983.6070925821003 438.0336669061416L977.2031513544365 438.0336669061416Q968.8595548510858 438.0336669061416 962.5479781603593 438.0336669061416Q956.2056132906538 438.0336669061416 949.2782730203443 438.0336669061416Q942.3509327500348 438.0336669061416 931.9753164340599 438.0336669061416L931.9753164340599 438.0336669061416ZM981.2056146217263 428.9511541072913L981.2056146217263 428.9511541072913Q988.6871421136606 428.9511541072913 996.5689159323239 425.3181489877513Q1004.4814779299664 421.6851438682111 1011.1933009474218 414.2651927342351Q1017.9051239648774 406.84524160025916 1022.0615281270631 395.6075562728682Q1026.248720468228 384.33908276649794 1026.248720468228 369.098934171817L1026.248720468228 369.098934171817Q1026.248720468228 340.2811986473294 1012.2093108537339 323.9018874304198Q998.200689418219 307.491788034531 972.123101822876 307.491788034531L972.123101822876 307.491788034531Q966.704382322545 307.491788034531 961.5011800750682 307.8304580033017L961.5011800750682 307.8304580033017L961.5011800750682 421.3772620784196Q961.5011800750682 424.7331735871473 964.4876334360462 426.3033707150841Q967.4740867970239 427.8735678430209 971.9999491069594 428.3969668856666Q976.5565995958742 428.9511541072913 981.2056146217263 428.9511541072913ZM1096.692073972531 301.54966949155437L1096.692073972531 301.54966949155437Q1096.692073972531 307.61494075044766 1093.120645210949 311.98686216548737Q1089.5492164493671 316.3587835805272 1084.1612851280156 316.3587835805272L1084.1612851280156 316.3587835805272Q1075.047984150186 316.3587835805272 1075.047984150186 305.98316726455243L1075.047984150186 305.98316726455243Q1075.047984150186 299.8255314687218 1078.7425656276846 295.5459745906195Q1082.4063589262037 291.2664177125171 1087.5171966367434 291.2664177125171L1087.5171966367434 291.2664177125171Q1096.692073972531 291.2664177125171 1096.692073972531 301.54966949155437ZM1108.6070992374634 438.0336669061416L1062.0553726209832 438.0336669061416L1062.0553726209832 433.38465188028937Q1077.2339448577059 430.3366221613532 1077.2339448577059 426.7651933997715L1077.2339448577059 426.7651933997715L1077.2339448577059 365.5275054102353Q1077.2339448577059 358.04597791830093 1076.5566049201648 354.3513964408025Q1075.9100531616023 350.6876031422833 1072.7696589057286 349.20977055128395Q1069.629264649855 347.76272613926375 1062.0553726209832 347.11617438070147L1062.0553726209832 347.11617438070147L1062.0553726209832 342.77504114464085Q1068.8903483543554 341.4819376275164 1076.5566049201648 339.1420360251007Q1084.2536496649527 336.8329226016643 1089.7647337022213 334.1235628514988L1089.7647337022213 334.1235628514988L1093.4593151797199 334.1235628514988L1093.4593151797199 426.7651933997715Q1093.4593151797199 428.0890850958751 1097.0923202992599 429.9671640136034Q1100.6945372398209 431.87603111031086 1108.6070992374634 433.38465188028937L1108.6070992374634 433.38465188028937L1108.6070992374634 438.0336669061416ZM1234.7154803360759 301.6420340284918L1234.7154803360759 306.29104905434406Q1227.7881400657661 307.18390624473943 1223.7241004405182 308.2614925090098Q1219.6600608152698 309.3390787732802 1216.304149306542 313.00287207179946L1216.304149306542 313.00287207179946L1166.0886293915428 368.4215942342757L1152.6649833566316 368.4215942342757L1197.2462665184462 315.927749074819Q1202.2339515130689 310.10878324775905 1200.01720262657 308.56937429880134Q1197.8004537400707 307.06075352882283 1189.241339983866 306.29104905434406L1189.241339983866 306.29104905434406L1189.241339983866 301.6420340284918L1234.7154803360759 301.6420340284918ZM1240.8731161319065 429.3821886129995L1241.6428206063852 434.03120363885165Q1235.362032094638 436.0940116304549 1228.8657263300365 437.81814965328755Q1222.3694205654351 439.5422876761201 1217.1662183179583 439.5422876761201L1217.1662183179583 439.5422876761201Q1214.0258240620847 439.5422876761201 1211.5935579227316 438.5878541277663Q1209.1612917833786 437.6026324004335 1207.0061192548378 434.8932726502679L1207.0061192548378 434.8932726502679L1152.6649833566316 368.4215942342757L1164.1489741158562 359.98563319398767L1221.1686815852481 424.3021390814392Q1224.9556275996842 428.61248413852064 1230.0972534892026 429.3206122550411Q1235.2388793787213 430.0287403715617 1240.8731161319065 429.3821886129995L1240.8731161319065 429.3821886129995ZM1168.6748364257915 438.0336669061416L1119.967937280771 438.0336669061416L1119.967937280771 433.38465188028937Q1127.3263120567885 431.87603111031086 1131.5135043979535 430.0287403715617Q1135.669908560139 428.18144963281253 1135.669908560139 426.7651933997715L1135.669908560139 426.7651933997715L1135.669908560139 313.00287207179946Q1135.669908560139 311.709768554675 1131.7290216508077 309.77011327898833Q1127.7573465624969 307.8304580033017 1119.967937280771 306.29104905434406L1119.967937280771 306.29104905434406L1119.967937280771 301.6420340284918L1168.6748364257915 301.6420340284918L1168.6748364257915 306.29104905434406Q1161.4396143656909 307.8304580033017 1157.2216338455469 309.64696056307173Q1152.9728651464234 311.49425130182095 1152.9728651464234 313.00287207179946L1152.9728651464234 313.00287207179946L1152.9728651464234 426.7651933997715Q1152.9728651464234 428.0890850958751 1156.882963876776 429.9671640136034Q1160.7930626071284 431.87603111031086 1168.6748364257915 433.38465188028937L1168.6748364257915 433.38465188028937L1168.6748364257915 438.0336669061416Z " fill="#fbf8be" transform="matrix(0.7047114880711198,0,0,0.7047114880711197,0,41.88783441295631)"/></g></svg>